<?xml version="1.0" encoding="UTF-8" standalone="no"?>
<svg xmlns="http://www.w3.org/2000/svg" width="200" height="200" viewBox="0 0 200 200">
  <rect width="200" height="200" fill="#ffffff" rx="20" ry="20" />
  <text x="100" y="70" font-family="BADHORSE, sans-serif" font-size="28" fill="#6B4226" text-anchor="middle" dominant-baseline="middle">DOCES</text>
  <text x="100" y="110" font-family="BADHORSE, sans-serif" font-size="40" fill="#F4BE52" text-anchor="middle" dominant-baseline="middle">MARA</text>
  <path d="M40,135 C40,120 60,120 100,120 C140,120 160,120 160,135 C160,150 140,160 100,160 C60,160 40,150 40,135 Z" fill="#6B4226" />
  <path d="M45,135 C45,125 60,125 100,125 C140,125 155,125 155,135 C155,145 140,155 100,155 C60,155 45,145 45,135 Z" fill="#F4BE52" />
</svg>